<svg width="30" height="30" viewBox="0 0 30 30" fill="none" xmlns="http://www.w3.org/2000/svg">
<g id="solar:refresh-bold-duotone">
<path id="Vector" d="M15.5367 3.00001C9.54419 3.00001 4.61919 7.57876 4.13919 13.4163H2.93794C2.75208 13.4162 2.57039 13.4713 2.41595 13.5747C2.2615 13.6781 2.14128 13.8251 2.07054 13.997C1.99981 14.1689 1.98176 14.3579 2.01869 14.54C2.05562 14.7222 2.14586 14.8893 2.27794 15.02L4.37794 17.1025C4.55352 17.2766 4.79073 17.3742 5.03794 17.3742C5.28516 17.3742 5.52237 17.2766 5.69794 17.1025L7.79794 15.02C7.93003 14.8893 8.02027 14.7222 8.05719 14.54C8.09412 14.3579 8.07607 14.1689 8.00534 13.997C7.93461 13.8251 7.81438 13.6781 7.65994 13.5747C7.5055 13.4713 7.3238 13.4162 7.13794 13.4163H6.02169C6.49669 8.62751 10.5692 4.87501 15.5367 4.87501C17.1745 4.87162 18.7858 5.2885 20.2164 6.08578C21.6471 6.88307 22.8493 8.0341 23.7079 9.42876C23.7708 9.53697 23.8547 9.63151 23.9546 9.7068C24.0546 9.78208 24.1686 9.8366 24.2899 9.86713C24.4113 9.89766 24.5375 9.90358 24.6612 9.88456C24.7849 9.86553 24.9035 9.82193 25.0101 9.75634C25.1166 9.69075 25.209 9.60449 25.2817 9.50264C25.3544 9.40079 25.406 9.28542 25.4334 9.16333C25.4608 9.04123 25.4635 8.91488 25.4413 8.79173C25.4191 8.66858 25.3725 8.55112 25.3042 8.44626C24.2779 6.77912 22.8411 5.40304 21.1313 4.44953C19.4215 3.49602 17.4944 2.99695 15.5367 3.00001Z" fill="white"/>
<path id="Vector_2" opacity="0.5" d="M26.4892 13.2713C26.3138 13.098 26.0771 13.0009 25.8305 13.0009C25.5839 13.0009 25.3472 13.098 25.1717 13.2713L23.063 15.3538C22.9305 15.4844 22.8399 15.6515 22.8027 15.8337C22.7655 16.016 22.7833 16.2052 22.854 16.3773C22.9246 16.5494 23.0448 16.6965 23.1993 16.8001C23.3539 16.9036 23.5357 16.9589 23.7217 16.9588H24.8455C24.3692 21.7463 20.2817 25.5001 15.2905 25.5001C13.6475 25.5046 12.0308 25.0884 10.5942 24.2911C9.15774 23.4937 7.94935 22.3418 7.08422 20.9451C7.02082 20.8377 6.93665 20.7441 6.83663 20.6697C6.7366 20.5952 6.62274 20.5415 6.5017 20.5116C6.38066 20.4817 6.25487 20.4763 6.13171 20.4956C6.00854 20.5149 5.89046 20.5586 5.78438 20.6241C5.6783 20.6896 5.58636 20.7756 5.51393 20.8771C5.44149 20.9786 5.39003 21.0935 5.36254 21.2151C5.33506 21.3367 5.3321 21.4626 5.35386 21.5853C5.37561 21.7081 5.42163 21.8253 5.48922 21.9301C6.52217 23.5986 7.96507 24.975 9.6805 25.9281C11.3959 26.8812 13.3268 27.3794 15.2892 27.3751C21.3005 27.3751 26.2467 22.8001 26.728 16.9588H27.938C28.124 16.9589 28.3058 16.9036 28.4603 16.8001C28.6149 16.6965 28.7351 16.5494 28.8057 16.3773C28.8763 16.2052 28.8942 16.016 28.857 15.8337C28.8198 15.6515 28.7292 15.4844 28.5967 15.3538L26.4892 13.2713Z" fill="#5E5E61"/>
</g>
</svg>
