<svg width="64" height="64" viewBox="0 0 64 64" fill="none" xmlns="http://www.w3.org/2000/svg">
<g id="with">
<rect id="Rectangle 50" x="0.5" y="0.5" width="63" height="63" rx="31.5" fill="white" stroke="#EEF1F6"/>
<g id="Group">
<path id="Vector" d="M39 25C39.2652 25 39.5196 24.8946 39.7071 24.7071C39.8946 24.5196 40 24.2652 40 24C40 23.7348 39.8946 23.4804 39.7071 23.2929C39.5196 23.1054 39.2652 23 39 23H25C24.7348 23 24.4804 23.1054 24.2929 23.2929C24.1054 23.4804 24 23.7348 24 24C24 24.2652 24.1054 24.5196 24.2929 24.7071C24.4804 24.8946 24.7348 25 25 25H39ZM27.05 32.703C27.1429 32.796 27.2532 32.8697 27.3746 32.9201C27.496 32.9704 27.6261 32.9963 27.7575 32.9963C27.8889 32.9963 28.019 32.9704 28.1404 32.9201C28.2618 32.8697 28.3721 32.796 28.465 32.703L31 30.167V40C31 40.2652 31.1054 40.5196 31.2929 40.7071C31.4804 40.8946 31.7348 41 32 41C32.2652 41 32.5196 40.8946 32.7071 40.7071C32.8946 40.5196 33 40.2652 33 40V30.167L35.536 32.703C35.7236 32.8905 35.9781 32.9958 36.2434 32.9957C36.5086 32.9956 36.763 32.8901 36.9505 32.7025C37.138 32.5149 37.2433 32.2604 37.2432 31.9951C37.2431 31.7299 37.1376 31.4755 36.95 31.288L32.707 27.046C32.5195 26.8585 32.2652 26.7532 32 26.7532C31.7348 26.7532 31.4805 26.8585 31.293 27.046L27.05 31.288C26.957 31.3809 26.8833 31.4912 26.8329 31.6126C26.7826 31.734 26.7567 31.8641 26.7567 31.9955C26.7567 32.1269 26.7826 32.257 26.8329 32.3784C26.8833 32.4998 26.957 32.6101 27.05 32.703Z" fill="#292932"/>
</g>
</g>
</svg>
